<?xml version="1.0" encoding="utf-8"?>
<!-- Generator: Adobe Illustrator 29.8.5, SVG Export Plug-In . SVG Version: 9.03 Build 0)  -->
<svg version="1.0" id="Calque_1" xmlns="http://www.w3.org/2000/svg" xmlns:xlink="http://www.w3.org/1999/xlink" x="0px" y="0px"
	 viewBox="0 0 930 930" style="enable-background:new 0 0 930 930;" xml:space="preserve">
<style type="text/css">
	.st0{fill:#FDFBEB;stroke:#FFFFFF;stroke-miterlimit:10;}
	.st1{fill:#F18963;}
	.st2{fill:#FDFBEB;}
</style>
<polygon id="Fond_blanc_P" class="st0" points="283.51,389.81 250.22,506.75 311.53,506.75 354.16,411.74 318.84,386.97 "/>
<g id="P_plein">
	<path class="st1" d="M123.67,645.58c-8.97,0-15.76-1.77-20.75-5.41c-6.11-4.46-8.47-11.16-6.66-18.88c0.86-3.83,2.6-7.1,5.14-9.65
		c1.93-1.94,4.61-3.99,8.18-6.27l0.23-0.14c4.07-2.39,7.29-4.88,9.57-7.38c1.34-1.47,3.29-4.59,4.98-11.08l51.19-180.85
		c0.89-2.9,1.35-5.68,1.35-8.26c0-2.43-0.42-3.82-0.76-4.57c-0.84-1.8-2.01-3.97-3.49-6.46c-3.38-4.93-4.95-9.02-4.95-12.85
		c0-1.52,0.31-3.44,1.05-6.42l0.05-0.2l0.06-0.2c1.78-5.78,5.81-10.1,11.66-12.49c4.73-1.93,11.34-2.86,20.22-2.86h138.65
		c31.2,0,55.82,7.04,73.17,20.92c17.85,14.28,26.9,33.44,26.9,56.95c0,9-1.36,18.55-4.03,28.36c-8.34,29.79-25.08,52.15-49.76,66.51
		c-24.08,14.01-54.73,21.12-91.09,21.12H257.1l-12.75,45.38l-0.05,0.17c-0.14,0.41-0.45,1.65-0.45,4.34c0,2.28,0.44,4.05,1.3,5.25
		c1.51,2.08,3.92,4.66,7.17,7.65c3.43,3.12,5.69,5.4,7.07,7.14c2.15,2.68,3.3,6.04,3.3,9.68c0,7.75-3.97,13.77-11.19,16.92
		c-5.47,2.4-12.9,3.56-22.7,3.56H123.67z M280.31,492.78c9.75,0,17.4-2.91,23.39-8.9c6.45-6.45,12.36-19.09,17.57-37.58l0.03-0.1
		c2.85-9.59,4.29-18.03,4.29-25.09c0-13.94-6.04-16.8-15.11-16.8h-13.21l-25.43,88.46H280.31z"/>
	<path class="st2" d="M339.38,359.12c29.6,0,52.42,6.43,68.48,19.28c16.05,12.84,24.08,29.88,24.08,51.1
		c0,8.38-1.26,17.17-3.77,26.39c-7.82,27.93-23.25,48.59-46.29,62c-23.03,13.4-52.14,20.1-87.32,20.1h-43.14l-14.24,50.69
		c-0.56,1.67-0.83,3.91-0.83,6.7c0,3.9,0.91,7.12,2.72,9.63c1.82,2.51,4.54,5.44,8.17,8.79c3.07,2.79,5.17,4.89,6.28,6.29
		c1.12,1.39,1.68,3.07,1.68,5.02c0,4.75-2.23,8.1-6.7,10.06c-4.47,1.96-11.03,2.93-19.69,2.93H123.67c-7.26,0-12.7-1.32-16.33-3.97
		c-3.64-2.66-4.89-6.36-3.78-11.11c0.56-2.51,1.61-4.53,3.15-6.07c1.53-1.54,3.83-3.28,6.9-5.24c4.75-2.79,8.52-5.72,11.31-8.79
		c2.79-3.07,5.02-7.82,6.7-14.24l51.1-180.53c1.12-3.63,1.68-7.12,1.68-10.47c0-3.07-0.49-5.66-1.47-7.75
		c-0.97-2.09-2.3-4.53-3.97-7.33c-2.51-3.63-3.77-6.56-3.77-8.8c0-0.84,0.28-2.37,0.83-4.61c1.12-3.63,3.56-6.21,7.33-7.75
		c3.77-1.54,9.57-2.31,17.38-2.31H339.38 M261.88,500.28h18.43c11.73,0,21.3-3.7,28.69-11.09c7.4-7.4,13.9-21.02,19.48-40.85
		c3.07-10.33,4.6-19.4,4.6-27.22c0-16.2-7.54-24.3-22.61-24.3h-18.86L261.88,500.28 M339.38,344.12H200.73
		c-10,0-17.32,1.08-23.04,3.41c-7.9,3.23-13.58,9.34-16.01,17.23l-0.12,0.4l-0.1,0.4c-0.9,3.65-1.27,6.03-1.27,8.22
		c0,5.36,1.95,10.73,6.12,16.89c1.26,2.13,2.26,3.97,2.96,5.46c0.03,0.15,0.12,0.63,0.12,1.53c0,1.83-0.34,3.87-1.01,6.05
		l-0.05,0.16l-0.05,0.16l-51.1,180.53l-0.04,0.15l-0.04,0.15c-1.51,5.77-3,7.63-3.29,7.94c-1.76,1.93-4.39,3.93-7.81,5.95
		l-0.23,0.13l-0.22,0.14c-4.04,2.57-7.14,4.96-9.48,7.31c-3.54,3.55-5.94,8.02-7.14,13.3c-2.48,10.65,1,20.33,9.55,26.58
		c6.32,4.62,14.56,6.86,25.18,6.86h105.13c10.85,0,19.26-1.37,25.7-4.19c9.97-4.36,15.68-13.04,15.68-23.8
		c0-5.34-1.71-10.3-4.93-14.35c-1.66-2.09-4.09-4.56-7.89-8.02c-3.28-3.03-5.03-5.03-5.94-6.23c-0.04-0.18-0.09-0.55-0.09-1.13
		c0-1.29,0.09-1.95,0.13-2.15l0.05-0.16l0.09-0.33l11.17-39.74h31.78c37.7,0,69.62-7.45,94.86-22.13
		c26.42-15.37,44.32-39.23,53.19-70.92l0.01-0.05l0.01-0.05c2.85-10.46,4.29-20.66,4.29-30.33c0-25.91-10-47.04-29.71-62.81
		C398.52,351.71,372.33,344.12,339.38,344.12L339.38,344.12z M302.92,411.81h7.56c3.52,0,5.42,0.7,5.97,1.29
		c0.75,0.81,1.63,3.39,1.63,8.01c0,6.33-1.34,14.05-3.98,22.95l-0.03,0.1l-0.03,0.1c-6.37,22.6-12.54,31.2-15.65,34.31
		c-4.27,4.27-9.57,6.41-16.59,6.67L302.92,411.81L302.92,411.81z"/>
</g>
<path id="Contour_anse_P" class="st2" d="M119.75,595.26l-26.8-7.52c0,0-6.5-2.25-16.24-10.86c-6.96-6.15-11.77-24.22-11.77-24.22
	s-2.84-10.02,2.44-32.15s4.87-48.43,4.87-48.43s0-24.63,8.12-39.25s19.49-25.05,19.49-25.05s11.91-11.48,37.89-18.38
	c0,0,24.35-7.04,43.84-2.17c19.49,4.87-5.47,46.63-5.47,46.63l-19.49-5.18c0,0-11.88-0.3-26.19,10.05
	c-11.67,8.44-11.88,17.97-11.88,17.97L114,490.2L110.65,510c0,0-2.86,8-5.18,15.84c-3.96,13.4,1.83,20.1,1.83,20.1
	s3.6,9.56,12.45,11.88c12.82,3.35,18,3.96,18,3.96l-9.71,36.57L119.75,595.26z"/>
<path id="Anse_P" class="st1" d="M157.83,569.21c0,0-3.13,4.41-9.97,4.84c-6.84,0.43-36.32-9.32-36.32-9.32s-21.34-10.11-17.62-32.4
	c0,0,0.73-10.43,5.77-18.67c5.04-8.23,7.67-50.67,7.67-50.67s4.98-23.07,15.44-30.14c0,0,7.39-9,20.35-12.55
	c12.96-3.56,15.91-2.07,15.91-2.07s21.29,2.27,26.03,12.61c4.74,10.34,9.4-31.44,9.4-31.44s-1.47-3.28-4.26,0.56
	c0,0-17.59-5.28-33.11-5.03s-33.69,7.77-33.69,7.77s-14.81,9.09-23.04,18.96c0,0-7.39,4.97-15.11,30.63c0,0-3.89,22.04-4.02,39.8
	s-4.46,33.78-4.46,33.78s-5.24,22.27,3.72,34.22c0,0,6.3,15.18,17.9,18.96c11.6,3.78,41.91,13.71,41.91,13.71s9.9,5.95,11.62,9.92
	c1.72,3.97,7.47-34.61,7.47-34.61L157.83,569.21z"/>
<path id="Coin_contour_P" class="st2" d="M155.72,428.7c0,0,11.57,2.44,10.66,12.88c-0.77,8.82,5.18-12.88,5.18-12.88H155.72z"/>
<path id="Coin_contour_P_2" class="st2" d="M136.11,548.06c0,0-2.44,11.57-12.88,10.66c-8.82-0.77,12.88,5.18,12.88,5.18V548.06z"/>
<path id="Goutte_1" class="st2" d="M392.59,314.55c0,0,5.32-7.73,5.97-17.02c0,0-1.43-5.92-3.83-11.63
	c-2.08-4.98,1.52-12.33,1.52-12.33s4.23-7.24,12.41-8.02c8.18-0.78,13.58,4.04,13.58,4.04s7.95,6.82,5.27,16.65
	c-2.68,9.83-11.77,16.79-11.77,16.79S403.53,311.94,392.59,314.55z"/>
<path id="Goutte_2" class="st2" d="M503.92,339.09c0,0-5.32-7.73-5.97-17.02c0,0,1.43-5.92,3.83-11.63
	c2.08-4.98-1.52-12.33-1.52-12.33s-4.23-7.24-12.41-8.02c-8.18-0.78-13.58,4.04-13.58,4.04s-7.95,6.82-5.27,16.65
	c2.68,9.83,11.77,16.79,11.77,16.79S492.98,336.48,503.92,339.09z"/>
<polygon id="Fond_blanc_B_00000131361548638513100620000000438727739789109435_" class="st2" points="571.66,395.57 645.85,391.44 
	699.15,613.13 611.86,603.38 563.95,422.7 "/>
<g id="B_plein_00000119839246957076106480000004124129686019592380_">
	<path class="st1" d="M624.44,647.23c-35.6,0-63.7-5.67-83.52-16.85c-20.48-11.54-34.28-29.52-41.02-53.42l-0.03-0.1
		c-2.42-9.06-3.65-17.12-3.65-23.95c0-15.34,4.6-28.46,13.68-38.99c4.35-5.04,9.47-9.4,15.33-13.04
		c-29.39-10.18-47.98-28.21-55.37-53.8c-2.18-6.89-3.29-14.46-3.29-22.5c0-14.58,4.28-27.7,12.72-39
		c8.29-11.09,20.33-19.9,35.8-26.18c15.09-6.13,32.93-9.24,53.01-9.24h151.62c8.96,0,15.64,0.94,20.4,2.88
		c5.9,2.41,9.96,6.76,11.75,12.58l0.06,0.19l0.05,0.19c0.76,3.01,1.08,4.95,1.08,6.49c0,3.86-1.59,7.99-5.01,12.96
		c-1.5,2.51-2.68,4.7-3.53,6.52c-0.51,1.1-0.79,2.71-0.79,4.67c0,2.62,0.46,5.43,1.36,8.38l51.72,182.71
		c2.01,6.89,4.06,10.05,5.42,11.48c2.33,2.45,5.48,4.92,9.34,7.36c0.72,0.4,2.01,1.19,5.05,3.21c3.83,2.56,6.63,6.15,8.32,10.68
		c1.19,2.84,1.79,5.62,1.79,8.27c0,5.99-3.01,11.12-8.47,14.45c-4.49,2.73-10.27,4.06-17.67,4.06H624.44z M641.38,525.67
		c-16.49,0-18.77,7.39-18.77,15.37c0,4.91,0.9,10.48,2.67,16.54c4.08,14.29,9.25,24.08,15.37,29.14c6.01,4.97,14.01,7.39,24.44,7.39
		h11.62l-19.79-68.44H641.38z M609.18,403.27c-14.51,0-17.49,5.81-17.49,14.53c0,4.57,0.88,9.64,2.61,15.08l0.07,0.23
		c3.8,13.42,8.63,22.65,14.33,27.43c5.5,4.6,13.35,6.93,23.34,6.93h8.72l-18.2-64.2H609.18z"/>
	<path class="st2" d="M719.73,357.66c7.9,0,13.76,0.78,17.58,2.33c3.81,1.56,6.28,4.17,7.41,7.84c0.57,2.26,0.85,3.82,0.85,4.66
		c0,2.26-1.27,5.23-3.82,8.9c-1.69,2.83-3.03,5.29-4.02,7.41c-0.99,2.12-1.49,4.73-1.49,7.84c0,3.39,0.57,6.91,1.7,10.58
		l51.67,182.55c1.98,6.77,4.38,11.64,7.2,14.61c2.83,2.96,6.49,5.86,11.01,8.68c0.57,0.29,2.12,1.28,4.66,2.97
		c2.54,1.69,4.37,4.09,5.5,7.2c0.85,1.98,1.27,3.81,1.27,5.5c0,3.39-1.62,6.07-4.87,8.04c-3.25,1.98-7.84,2.97-13.77,2.97H624.44
		c-34.45,0-61.07-5.29-79.84-15.88c-18.78-10.59-31.27-26.89-37.48-48.92c-2.26-8.47-3.39-15.81-3.39-22.02
		c0-13.55,3.95-24.92,11.86-34.09c7.91-9.18,18.64-15.75,32.19-19.7c-38.96-7.62-62.54-25.7-70.73-54.22
		c-1.98-6.21-2.97-12.98-2.97-20.32c0-12.99,3.74-24.49,11.23-34.52c7.49-10.02,18.36-17.93,32.61-23.72
		c14.26-5.79,30.99-8.69,50.19-8.69H719.73 M632.06,474.98h18.64l-22.45-79.2h-19.07c-16.65,0-24.99,7.34-24.99,22.03
		c0,5.36,0.99,11.15,2.97,17.36c4.24,14.96,9.82,25.35,16.73,31.14C610.82,472.08,620.2,474.98,632.06,474.98 M665.1,601.61h21.59
		l-24.13-83.44h-21.18c-17.51,0-26.27,7.63-26.27,22.87c0,5.65,0.99,11.86,2.97,18.64c4.52,15.81,10.45,26.75,17.8,32.82
		C643.22,598.58,652.96,601.61,665.1,601.61 M719.73,342.66H568.11c-21.05,0-39.84,3.3-55.84,9.79
		c-16.75,6.8-29.87,16.43-38.99,28.64c-9.43,12.63-14.21,27.27-14.21,43.49c0,8.78,1.21,17.07,3.61,24.67
		c5,17.26,14.78,31.56,29.06,42.5c5.47,4.19,11.63,7.9,18.46,11.11c-2.12,1.94-4.11,3.99-5.99,6.16
		c-10.28,11.93-15.5,26.69-15.5,43.88c0,7.59,1.28,16.05,3.9,25.89l0.03,0.1l0.03,0.1c7.29,25.88,22.29,45.36,44.56,57.92
		c21.25,11.99,49.77,17.81,87.2,17.81h176.18c8.82,0,15.87-1.69,21.57-5.15c7.67-4.67,12.07-12.27,12.07-20.85
		c0-3.6-0.78-7.31-2.32-11.03c-2.24-5.9-6.08-10.78-11.13-14.15c-2.91-1.94-4.38-2.86-5.39-3.43c-3.26-2.07-5.87-4.11-7.75-6.09
		c-0.05-0.06-1.72-1.87-3.64-8.4l-51.65-182.49l-0.05-0.16l-0.05-0.16c-0.69-2.23-1.03-4.3-1.03-6.17c0-0.96,0.1-1.45,0.13-1.6
		c0.72-1.54,1.73-3.39,3.01-5.55c4.22-6.19,6.18-11.6,6.18-16.99c0-2.23-0.38-4.64-1.31-8.33l-0.09-0.38l-0.11-0.37
		c-2.44-7.92-8.15-14.07-16.07-17.31C737.2,343.75,729.82,342.66,719.73,342.66L719.73,342.66z M630.85,459.96
		c-7.59-0.16-13.42-1.9-17.33-5.17c-2.54-2.13-7.48-8.05-11.93-23.72l-0.07-0.23l-0.07-0.23c-1.5-4.7-2.26-9.01-2.26-12.8
		c0-2.62,0.45-4.64,1.17-5.27c0.92-0.81,3.78-1.76,8.82-1.76h7.73L630.85,459.96L630.85,459.96z M665.1,586.61
		c-8.62,0-15.05-1.85-19.66-5.66c-2.78-2.3-8.15-8.64-12.93-25.38l-0.01-0.04l-0.01-0.04c-1.57-5.38-2.37-10.24-2.37-14.44
		c0-1.39,0.14-4.73,1.42-5.84c1.13-0.98,4.31-2.03,9.85-2.03h9.9l15.45,53.44H665.1L665.1,586.61z"/>
</g>
<g id="Contour_anse_B_00000070839017356184388460000006275291687087642795_">
	<path class="st2" d="M746.28,395.4l29.02-6.85c0,0,7.26-1.29,20.93,1.36c9.76,1.89,23.86,15.28,23.86,15.28s7.97,7.34,14.8,29.34
		c6.83,22,21.18,44.8,21.18,44.8s13.08,21.55,13.26,38.4c0.18,16.85-4.9,31.67-4.9,31.67s-5.02,16.01-25.62,35.06
		c0,0-22.24,28.07-37.65,23.88c-13.73-3.74-18.82-44.28-18.82-44.28l17.97-4.49c0,0,11.25-5.68,19.12-21.91
		c6.41-13.23,1.55-21.66,1.55-21.66l-13.52-31.59l-7.38-18.99c0,0-1.58-8.43-3.58-16.44c-3.42-13.7-12.38-16.66-12.38-16.66
		s-8.44-6.56-17.94-4.15c-13.75,3.49-18.91,5.56-18.91,5.56l-10.35-36.85L746.28,395.4z"/>
	<path class="st2" d="M801.15,559.09c0,0-12.1,3.67-16.79-5.92c-3.97-8.1,2,13.86,2,13.86L801.15,559.09z"/>
	<path class="st2" d="M755.39,447.88c0,0-3.19-14.33,7.05-18.77c8.65-3.75-14.77,1.92-14.77,1.92L755.39,447.88z"/>
</g>
<path id="Anse_B_00000057112501000917006610000008063429123942298012_" class="st1" d="M733.5,433.75c0,0,0.73-5.37,6.64-8.97
	c5.92-3.6,36.84-8.85,36.84-8.85s23.82-1.11,30.97,20.33c0,0,4.25,9.56,3.61,19.2c-0.64,9.64,16.95,48.36,16.95,48.36
	s6.39,22.72,0.37,33.88c0,0-2.37,11.42-12.29,20.66c-9.92,9.24-13.25,9.32-13.25,9.32s-20.09,8.02-29.19,1.11
	c-9.09-6.91,6.37,32.19,6.37,32.19s2.86,2.21,3.54-2.5c0,0,18.2-3.61,31.95-11.14c13.75-7.52,26.46-22.71,26.46-22.71
	s8.97-15,11.68-27.59c0,0,4.27-7.87-0.89-34.16c0,0-6.88-21.29-15.11-37.05c-8.23-15.75-11.89-31.93-11.89-31.93
	s-5.78-22.14-19.4-28.47c0,0-12.77-10.44-24.91-8.32c-12.14,2.12-43.89,7.61-43.89,7.61s-11.64-0.6-15.04-3.3
	c-3.4-2.7,9.59,34.09,9.59,34.09L733.5,433.75z"/>
</svg>
