<?xml version="1.0" encoding="utf-8"?>
<!-- Generator: Adobe Illustrator 29.8.5, SVG Export Plug-In . SVG Version: 9.03 Build 0)  -->
<svg version="1.0" id="Calque_1" xmlns="http://www.w3.org/2000/svg" xmlns:xlink="http://www.w3.org/1999/xlink" x="0px" y="0px"
	 viewBox="0 0 1368 470.57" style="enable-background:new 0 0 1368 470.57;" xml:space="preserve">
<style type="text/css">
	.st0{fill:#FDFBEB;}
	.st1{fill:#F18963;}
	.st2{fill:#FFFFFF;}
</style>
<polygon class="st0" points="550.41,278 599.39,290.53 565.72,332.02 "/>
<g>
	<path class="st1" d="M318.01,379.75c-8.36,0-14.56-1.52-18.98-4.64c-5.71-4.04-7.88-10.19-5.95-16.88l0.09-0.29
		c1.65-4.97,5.59-9.12,11.69-12.36c3.07-1.63,5.63-3.56,7.61-5.73c1.22-1.34,3.06-4.27,4.89-10.54l58.68-192.6
		c0.71-2.15,0.77-3.15,0.77-3.41c0-0.75-0.09-1.75-0.51-2.28c-1.06-1.35-2.5-2.73-4.3-4.13l-0.09-0.07
		c-3.09-2.48-5.35-4.68-6.89-6.73c-1.83-2.46-3.6-6.62-1.79-12.72c2.36-8.77,11.69-15.3,29.35-20.57
		c15.28-4.56,31.44-6.87,48.01-6.87c16.8,0,29.11,3.32,37.64,10.14c8.9,7.11,13.42,16.86,13.42,28.98c0,6.4-1.03,12.74-3.06,18.85
		l-60.42,196.29c-0.59,2.4-0.9,4.45-0.9,6.09c0,2.54,0.51,3.5,0.67,3.74c0.83,1.24,2.09,2.53,3.75,3.81l0.38,0.29l0.34,0.34
		c2.17,2.18,3.74,4.01,4.8,5.6c1.39,2.09,2.76,5.64,1.36,10.6l-0.09,0.33l-0.12,0.32c-2.03,5.29-6.16,9.31-11.93,11.62
		c-4.8,1.91-11.51,2.84-20.51,2.84H318.01z"/>
	<path class="st2" d="M440.57,87.43c14.89,0,25.88,2.83,32.95,8.49c7.07,5.65,10.61,13.36,10.61,23.12c0,5.65-0.9,11.17-2.71,16.56
		l-60.5,196.56c-0.78,3.09-1.17,5.79-1.17,8.1c0,3.34,0.64,5.97,1.93,7.9c1.29,1.93,3.08,3.79,5.4,5.58
		c1.8,1.81,3.09,3.29,3.86,4.45c0.77,1.15,0.9,2.62,0.39,4.41c-1.29,3.35-3.86,5.8-7.71,7.34c-3.86,1.54-9.77,2.3-17.73,2.3h-87.87
		c-6.69,0-11.57-1.09-14.65-3.26c-3.09-2.19-4.11-5.08-3.08-8.68c1.03-3.09,3.72-5.79,8.09-8.1c3.86-2.05,7.07-4.49,9.64-7.31
		c2.57-2.83,4.75-7.33,6.55-13.5l58.59-192.34c0.77-2.31,1.15-4.23,1.15-5.77c0-2.83-0.71-5.14-2.13-6.94
		c-1.41-1.8-3.27-3.6-5.58-5.4c-2.57-2.06-4.44-3.86-5.6-5.4c-1.15-1.54-1.34-3.6-0.56-6.17c1.53-5.91,9.62-11.05,24.27-15.41
		C409.35,89.62,424.64,87.43,440.57,87.43 M440.57,72.43c-17.3,0-34.18,2.42-50.16,7.19c-12.82,3.82-30.3,10.64-34.42,25.71
		c-2.77,9.51,0.66,16.11,2.97,19.21l0.03,0.04l0.03,0.04c1.92,2.54,4.6,5.18,8.18,8.06l0.09,0.08l0.1,0.07
		c0.64,0.5,1.16,0.94,1.59,1.34c-0.02,0.06-0.04,0.13-0.06,0.2l-0.06,0.17l-0.05,0.18l-58.59,192.34l-0.03,0.09l-0.03,0.09
		c-1.7,5.85-3.18,7.53-3.24,7.6c-1.38,1.52-3.27,2.92-5.58,4.15c-7.85,4.16-12.99,9.75-15.27,16.61l-0.1,0.29l-0.09,0.3
		c-2.82,9.79,0.48,19.16,8.82,25.07c5.73,4.05,13.36,6.02,23.32,6.02h87.87c10.11,0,17.51-1.07,23.27-3.36
		c7.79-3.12,13.37-8.61,16.17-15.9l0.24-0.64l0.19-0.65c1.7-6.02,0.87-11.99-2.33-16.81c-1.35-2.03-3.17-4.17-5.73-6.73l-0.67-0.68
		l-0.75-0.59c-0.69-0.54-1.18-0.99-1.51-1.33c0-0.09,0-0.19,0-0.29c0-0.57,0.08-1.84,0.63-4.09l60.33-196
		c2.27-6.85,3.42-13.96,3.42-21.13c0-14.3-5.62-26.35-16.24-34.84C472.99,76.28,459.15,72.43,440.57,72.43L440.57,72.43z"/>
</g>
<g>
	<path class="st1" d="M634.42,380.9c-14.5,0-27.19-2.74-37.73-8.15c-7.53-3.87-13.54-9.04-17.96-15.46
		c-6.67,6.31-14.18,11.46-22.42,15.38c-11.5,5.46-23.99,8.24-37.13,8.24c-14.87,0-27.66-2.99-38.01-8.88
		c-10.45-5.95-18.36-13.81-23.51-23.38c-5.06-9.42-7.63-19.5-7.63-29.96c0-4.58,0.44-9.09,1.29-13.42l0.05-0.24
		c4.55-19.59,14.64-34.61,29.99-44.65c12.87-8.43,27.97-13.27,44.98-14.44c-4.35-1.58-8.22-3.69-11.59-6.32
		c-8.94-7-13.48-15.93-13.48-26.55c0-15.62,8.5-28.56,25.27-38.45c15.71-9.26,38.52-13.76,69.73-13.76c30.82,0,56,5.89,74.84,17.5
		c20.01,12.32,30.15,31.26,30.15,56.28c0,9.14-1.65,19.55-4.91,30.96l-15.13,50.96c2.57-2.98,5.3-5.39,9.07-5.39
		c1.97,0,6.88,0.67,9.98,6.84c1.41,2.8,2.13,5.96,2.15,9.38c0.28,8.65-2.89,17.36-9.45,25.9c-6.2,8.07-14.53,14.76-24.77,19.87
		C657.97,378.3,646.6,380.9,634.42,380.9z M574.69,292.64c-4.93,0-8.65,1.76-11.73,5.53c-3.41,4.19-5.06,8.5-5.06,13.19
		c0,2.43,0.47,4.28,1.39,5.51c0.27,0.36,0.64,0.86,2.29,0.86c1.77,0,4.11-0.95,6.77-2.75c2.6-1.76,4.49-4.48,5.77-8.31l4.95-13.92
		C577.66,292.68,576.2,292.64,574.69,292.64z M564.36,247.8c9.6,1.39,19.14,3.44,28.55,6.16l7.07-18.64
		c3.02-9.82,4.57-17.37,4.6-22.45c-0.28-5.72-2.59-7.56-3.35-8.17c-0.73-0.58-1.81-1.22-3.41-1.75c0.12,1.32,0.18,2.64,0.18,3.97
		c0,11.58-4.4,21.69-13.09,30.06C579.44,242.24,572.57,245.86,564.36,247.8z"/>
	<path class="st0" d="M596.28,168.37c29.54,0,53.18,5.46,70.91,16.39c17.73,10.92,26.59,27.55,26.59,49.9
		c0,8.48-1.54,18.12-4.62,28.91l-15.8,53.2c-0.26,1.03-0.39,2.31-0.39,3.86c0,4.11,1.67,6.16,5.01,6.16c3.09,0,5.72-1.34,7.9-4.04
		c2.19-2.69,3.66-4.04,4.43-4.04c1.29,0,2.38,0.9,3.28,2.71c0.9,1.79,1.35,3.85,1.35,6.16c0.26,6.93-2.38,14-7.9,21.19
		c-5.53,7.2-12.92,13.1-22.18,17.73c-9.25,4.63-19.4,6.93-30.45,6.93c-13.35,0-24.79-2.44-34.3-7.32
		c-9.51-4.88-16.06-12.08-19.65-21.58c-7.7,9.26-16.83,16.39-27.37,21.4c-10.53,5.01-21.84,7.51-33.91,7.51
		c-13.61,0-25.05-2.63-34.3-7.9c-9.25-5.26-16.12-12.07-20.62-20.42c-4.49-8.36-6.73-17.16-6.73-26.4c0-4.11,0.38-8.1,1.15-11.96
		c4.11-17.73,13.05-31.08,26.79-40.07c13.74-9,30.12-13.5,49.14-13.5c21.32,0,42.26,3.34,62.82,10.03l9.64-25.44
		c3.34-10.79,5.01-19.14,5.01-25.05c-0.26-6.17-2.32-10.79-6.17-13.87c-3.86-3.09-9.77-4.63-17.73-4.63
		c1.54,4.11,2.32,8.35,2.32,12.72c0,9.51-3.6,17.73-10.79,24.66c-7.2,6.93-17.47,10.4-30.84,10.4c-12.6,0-22.43-2.76-29.5-8.27
		c-7.06-5.52-10.59-12.4-10.59-20.64c0-12.84,7.19-23.5,21.58-31.99C544.75,172.61,566.72,168.37,596.28,168.37 M561.59,325.23
		c3.34,0,6.99-1.34,10.98-4.04c3.98-2.69,6.87-6.74,8.68-12.14l8.09-22.73c-4.36-0.78-9.24-1.17-14.63-1.17
		c-7.2,0-13.04,2.77-17.54,8.29c-4.5,5.53-6.75,11.5-6.75,17.93c0,4.11,0.96,7.44,2.89,10.01
		C555.23,323.95,557.99,325.23,561.59,325.23 M596.28,153.37c-32.59,0-56.64,4.84-73.53,14.8c-23.94,14.11-28.97,32.21-28.97,44.91
		c0,10.97,4.11,20.75,11.95,28.57c-10.33,2.65-19.85,6.82-28.48,12.46c-17.02,11.13-28.19,27.7-33.19,49.23l-0.05,0.23l-0.05,0.24
		c-0.95,4.81-1.44,9.81-1.44,14.88c0,11.71,2.87,22.99,8.52,33.5c5.84,10.84,14.72,19.7,26.41,26.35
		c11.5,6.55,25.54,9.86,41.72,9.86c14.26,0,27.84-3.02,40.35-8.96c6.53-3.1,12.63-6.92,18.27-11.41c4.3,4.51,9.47,8.32,15.46,11.4
		c11.61,5.96,25.45,8.98,41.15,8.98c13.35,0,25.86-2.87,37.16-8.52c11.26-5.62,20.47-13.03,27.36-22.01
		c7.62-9.92,11.32-20.22,11-30.62c-0.04-4.55-1.03-8.79-2.95-12.6c-3.03-6.03-8.21-9.93-14.16-10.79l10.7-36.04l0.02-0.08l0.02-0.08
		c3.45-12.08,5.19-23.19,5.19-33.02c0-27.41-11.66-49.08-33.72-62.67C655.01,159.63,628.51,153.37,596.28,153.37L596.28,153.37z
		 M587.48,244.73c0.45-0.38,0.9-0.76,1.34-1.15l-0.52,1.36C588.03,244.86,587.76,244.79,587.48,244.73L587.48,244.73z"/>
</g>
<g>
	<path class="st1" d="M904.59,383.22c-18.6,0-33.78-4.49-45.1-13.35c-11.83-9.26-17.98-21.76-18.29-37.17l0-0.15
		c0-10.4,2.51-22.08,7.47-34.72l21.17-55.43c1.33-3.47,1.44-5.03,1.44-5.43c0-1.62-0.48-2.05-0.74-2.28
		c-0.57-0.5-1.37-1.02-2.94-1.02c-3.58,0-7.12,1.84-10.82,5.64c-4.33,4.43-7.39,9.79-9.36,16.38l-23.97,78.84l-0.07,0.19
		c-0.72,1.99-1.09,3.86-1.09,5.55c0,2.04,0.42,2.98,0.67,3.35c0.92,1.38,2.3,2.89,4.09,4.49c2.42,2.08,4.17,4.06,5.35,6.04
		c1.29,2.16,2.53,5.72,1.17,10.51l-0.05,0.16c-1.18,3.86-4.17,9.09-11.71,12.1c-4.8,1.91-11.63,2.84-20.9,2.84h-87.87
		c-8.41,0-14.59-1.55-18.91-4.73c-5.3-3.93-7.54-9.86-6.15-16.3l0.09-0.4l0.13-0.39c1.65-4.97,5.59-9.13,11.69-12.36
		c3.07-1.63,5.63-3.56,7.61-5.73c1.22-1.34,3.06-4.27,4.89-10.54l34.43-111.79l0.12-0.29c0,0,0.24-0.7,0.24-2.6
		c0-1.58-0.28-2.12-0.29-2.13c-0.54-0.72-1.77-2.13-4.4-4.5c-3.12-2.51-5.34-4.78-6.78-6.93c-1.59-2.39-3.1-6.46-1.37-12.37
		c2.36-8.74,11.67-15.34,29.29-20.75c15.29-4.7,31.47-7.08,48.08-7.08c14.77,0,26.75,4.26,35.61,12.66
		c4.75,4.51,8.16,9.91,10.19,16.15c7.93-8.66,16.26-15.15,24.9-19.38c12.79-6.26,26.87-9.44,41.83-9.44
		c17.64,0,32.18,5.52,43.22,16.42c11.08,10.92,16.69,25.17,16.69,42.35c0,8.7-1.42,17.38-4.21,25.8l-22.68,73.31
		c2.42-2.73,5.06-4.87,8.61-4.87c2.02,0,7.03,0.67,9.89,6.86c1.21,2.61,1.84,5.64,1.86,9c0.28,9.08-2.66,17.93-8.76,26.31
		c-5.89,8.1-14.47,14.75-25.51,19.77C932.51,380.73,919.47,383.22,904.59,383.22z"/>
	<path class="st0" d="M924.24,168.37c15.67,0,28.32,4.75,37.96,14.26c9.64,9.51,14.46,21.85,14.46,37.01
		c0,7.96-1.29,15.8-3.86,23.51l-23.49,75.93c-0.52,1.03-0.78,2.57-0.78,4.62c0,1.79,0.44,3.21,1.34,4.25
		c0.9,1.03,2.12,1.54,3.67,1.54c3.09,0,5.72-1.34,7.9-4.04c2.19-2.71,3.66-4.06,4.43-4.06c1.29,0,2.31,0.84,3.08,2.5
		c0.78,1.67,1.17,3.67,1.17,5.99c0.26,7.44-2.18,14.7-7.32,21.77c-5.14,7.07-12.66,12.86-22.55,17.35
		c-9.89,4.49-21.78,6.73-35.66,6.73c-16.96,0-30.45-3.92-40.48-11.76c-10.01-7.84-15.15-18.31-15.41-31.41
		c0-9.51,2.32-20.17,6.95-31.99l21.19-55.5c1.29-3.35,1.93-6.05,1.93-8.1c0-3.34-1.1-5.97-3.28-7.9c-2.19-1.93-4.82-2.89-7.9-2.89
		c-5.65,0-11.05,2.63-16.19,7.9c-5.14,5.27-8.87,11.76-11.18,19.47l-23.9,78.62c-1.03,2.83-1.54,5.53-1.54,8.1
		c0,3.08,0.64,5.58,1.93,7.51c1.29,1.93,3.08,3.92,5.4,5.97c1.8,1.55,3.09,2.96,3.86,4.25c0.77,1.29,0.9,2.82,0.39,4.62
		c-1.03,3.35-3.47,5.8-7.32,7.34c-3.86,1.54-9.9,2.3-18.12,2.3h-87.87c-6.69,0-11.51-1.09-14.46-3.26
		c-2.95-2.19-4.04-5.08-3.26-8.68c1.03-3.09,3.72-5.79,8.09-8.1c3.86-2.05,7.07-4.49,9.64-7.31c2.57-2.83,4.75-7.33,6.55-13.5
		l34.3-111.38c0.52-1.29,0.78-3.08,0.78-5.4c0-2.83-0.58-5.02-1.74-6.56c-1.15-1.54-3.01-3.47-5.58-5.78
		c-2.57-2.05-4.37-3.84-5.4-5.38c-1.03-1.54-1.16-3.6-0.39-6.17c1.54-5.91,9.63-11.11,24.27-15.61c14.65-4.5,29.94-6.75,45.87-6.75
		c12.84,0,22.99,3.54,30.45,10.61c7.45,7.06,10.79,16.89,10.01,29.48c10.54-15.16,21.72-25.63,33.54-31.41
		C897.53,171.26,910.37,168.37,924.24,168.37 M924.24,153.37c-16.11,0-31.3,3.43-45.13,10.21c-6.67,3.27-13.15,7.73-19.4,13.35
		c-2.28-3.63-4.82-6.55-7.25-8.84c-10.3-9.77-24.01-14.72-40.76-14.72c-17.35,0-34.27,2.49-50.28,7.41
		c-12.78,3.93-30.2,10.88-34.31,25.89c-2.64,9.1,0.33,15.52,2.34,18.55c1.87,2.81,4.46,5.51,8.15,8.49
		c0.84,0.76,1.48,1.38,1.96,1.87l-0.01,0.04l-34.3,111.38l-0.04,0.11l-0.03,0.11c-1.7,5.85-3.18,7.53-3.24,7.6
		c-1.38,1.52-3.27,2.92-5.58,4.15c-7.85,4.16-12.99,9.75-15.27,16.61l-0.26,0.77l-0.17,0.8c-2.01,9.3,1.35,18.24,9,23.9
		c5.68,4.19,13.32,6.21,23.39,6.21h87.87c10.38,0,17.9-1.07,23.66-3.36c8.05-3.22,13.77-9.21,16.12-16.88l0.05-0.16l0.04-0.16
		c0.53-1.87,0.81-3.76,0.86-5.61c3.38,5.52,7.8,10.45,13.22,14.69c12.67,9.92,29.4,14.94,49.72,14.94c15.96,0,30.04-2.72,41.85-8.07
		c12.25-5.57,21.82-13.04,28.48-22.19c7.08-9.73,10.51-20.12,10.19-30.86c-0.03-4.41-0.9-8.46-2.57-12.05
		c-2.77-5.99-7.76-9.93-13.68-10.92l18.22-58.9c3.03-9.16,4.57-18.61,4.57-28.09c0-19.26-6.37-35.31-18.93-47.69
		C960.24,159.62,943.93,153.37,924.24,153.37L924.24,153.37z M849.47,274.72l5.11-16.81l0.01-0.03l0.01-0.03
		c1.28-4.27,3.09-7.88,5.5-10.95L849.47,274.72L849.47,274.72z M829.79,340.24c0.01-0.79,0.23-1.82,0.64-2.96l0.14-0.37l0.12-0.38
		l3.35-11.04c-0.22,2.4-0.33,4.76-0.33,7.06v0.15l0,0.15c0.09,4.44,0.62,8.71,1.59,12.78c-0.98-1.06-2.08-2.11-3.31-3.17
		C830.94,341.53,830.24,340.78,829.79,340.24L829.79,340.24z"/>
</g>
<polygon class="st0" points="167.81,254.86 246,256.29 257.59,166.66 189.84,150.73 "/>
<g id="P_plein_sans_anse">
	<path class="st1" d="M66.53,381.89c-7.93,0-13.95-1.58-18.42-4.84c-5.52-4.03-7.75-10.34-6.12-17.29c0.78-3.47,2.36-6.45,4.69-8.78
		c1.72-1.72,4.07-3.53,7.2-5.52l0.23-0.14c3.4-2,6.07-4.05,7.95-6.12c1.06-1.17,2.63-3.7,4.03-9.05l43.88-155.03
		c0.73-2.38,1.11-4.66,1.11-6.76c0-1.98-0.35-3.02-0.55-3.46c-0.7-1.5-1.68-3.32-2.93-5.41c-3.01-4.4-4.41-8.09-4.41-11.59
		c0-1.4,0.28-3.12,0.93-5.76l0.05-0.2l0.06-0.2c1.62-5.27,5.29-9.2,10.61-11.38c4.19-1.71,9.99-2.53,17.73-2.53h118.82
		c26.99,0,48.31,6.11,63.37,18.17c15.56,12.45,23.45,29.15,23.45,49.64c0,7.81-1.17,16.08-3.49,24.58
		c-7.23,25.81-21.74,45.19-43.14,57.64c-20.81,12.1-47.25,18.24-78.6,18.24h-31.29l-10.72,38.13l-0.05,0.16
		c-0.08,0.24-0.33,1.18-0.33,3.38c0,1.73,0.31,3.03,0.92,3.87c1.25,1.72,3.27,3.88,6,6.4c2.98,2.71,4.95,4.7,6.17,6.24
		c1.99,2.49,3.06,5.6,3.06,8.96c0,7.1-3.63,12.6-10.23,15.49c-4.83,2.12-11.33,3.14-19.88,3.14H66.53z M200.77,248.79
		c8.06,0,14.37-2.39,19.29-7.31c3.71-3.71,9.28-12.23,14.78-31.74l0.03-0.1c2.41-8.12,3.63-15.25,3.63-21.19
		c0-11.1-4.54-13.32-11.88-13.32h-10.51l-21.18,73.66H200.77z"/>
	<path class="st0" d="M251.39,135.32c25.37,0,44.93,5.51,58.69,16.52c13.76,11.01,20.64,25.6,20.64,43.79
		c0,7.18-1.08,14.72-3.23,22.61c-6.7,23.93-19.93,41.64-39.67,53.13c-19.74,11.48-44.68,17.22-74.83,17.22h-36.97l-12.21,43.44
		c-0.48,1.44-0.71,3.35-0.71,5.74c0,3.35,0.78,6.1,2.33,8.25c1.56,2.15,3.89,4.66,7,7.53c2.63,2.39,4.43,4.19,5.38,5.39
		c0.96,1.19,1.44,2.63,1.44,4.3c0,4.07-1.91,6.94-5.74,8.62c-3.83,1.68-9.45,2.51-16.87,2.51H66.53c-6.22,0-10.89-1.13-14-3.4
		c-3.12-2.28-4.19-5.45-3.24-9.52c0.48-2.15,1.38-3.88,2.7-5.2c1.31-1.32,3.28-2.81,5.92-4.49c4.07-2.39,7.3-4.9,9.69-7.53
		c2.39-2.63,4.31-6.7,5.74-12.21l43.79-154.71c0.96-3.11,1.44-6.1,1.44-8.97c0-2.63-0.42-4.85-1.26-6.64
		c-0.84-1.79-1.97-3.88-3.4-6.28c-2.15-3.11-3.23-5.62-3.23-7.54c0-0.72,0.24-2.03,0.71-3.95c0.96-3.11,3.05-5.32,6.28-6.64
		c3.23-1.32,8.2-1.98,14.9-1.98H251.39 M184.98,256.29h15.8c10.05,0,18.25-3.17,24.59-9.51c6.34-6.34,11.91-18.01,16.7-35.01
		c2.63-8.86,3.94-16.63,3.94-23.33c0-13.88-6.46-20.82-19.38-20.82h-16.16L184.98,256.29 M251.39,120.32H132.57
		c-8.86,0-15.39,0.98-20.55,3.08c-7.38,3.02-12.69,8.74-14.96,16.12l-0.12,0.4l-0.1,0.4c-0.82,3.31-1.15,5.5-1.15,7.56
		c0,4.95,1.83,10.07,5.58,15.62c0.96,1.62,1.72,3.02,2.28,4.18c0.01,0.14,0.03,0.35,0.03,0.67c0,1.35-0.26,2.89-0.77,4.56
		l-0.05,0.16l-0.05,0.16L58.92,327.95l-0.04,0.15l-0.04,0.15c-1.19,4.55-2.32,5.9-2.33,5.91c-0.92,1.01-2.77,2.67-6.19,4.68
		l-0.23,0.13l-0.22,0.14c-3.6,2.29-6.38,4.44-8.49,6.56c-3.32,3.32-5.57,7.51-6.69,12.43c-2.29,9.86,1.07,19.2,9.01,24.99
		c5.8,4.23,13.27,6.29,22.84,6.29h90.09c9.6,0,17.09-1.23,22.89-3.77c9.22-4.04,14.73-12.4,14.73-22.36c0-5.07-1.62-9.78-4.7-13.64
		c-1.5-1.88-3.65-4.08-6.99-7.12c-2.36-2.18-3.71-3.67-4.46-4.59c0-0.04,0-0.09,0-0.14c0-0.72,0.04-1.15,0.06-1.35l0,0l0.09-0.33
		l9.13-32.5h25.61c32.69,0,60.41-6.48,82.38-19.26c23.14-13.47,38.81-34.34,46.57-62.05l0.01-0.05l0.01-0.05
		c2.49-9.14,3.76-18.08,3.76-26.56c0-22.88-8.84-41.56-26.27-55.5C303.02,126.99,280.13,120.32,251.39,120.32L251.39,120.32z
		 M221.76,182.63h4.86c2.23,0,3.26,0.35,3.57,0.49c0.19,0.37,0.8,1.84,0.8,5.34c0,5.22-1.12,11.63-3.32,19.06l-0.03,0.1l-0.03,0.1
		c-5.32,18.9-10.35,25.95-12.86,28.47c-1.77,1.77-4.59,4-9.77,4.81L221.76,182.63L221.76,182.63z"/>
</g>
<path class="st0" d="M1155.32,150.73c57.59-9.54,79.09,11.26,83.51,15.93c41.35,43.65,1.29,167.6-70.29,186.59
	c-3.95,1.05-40.66,10.26-61.24-10.19C1077.93,313.87,1093.51,236.25,1155.32,150.73z"/>
<g id="B_plein_sans_anse">
	<path class="st1" d="M1036.61,383.22c-6.55,0-11.68-1.19-15.7-3.64c-5.01-3.05-7.77-7.78-7.77-13.3c0-2.4,0.54-4.92,1.61-7.48
		c1.53-4.09,4.07-7.34,7.53-9.65c2.69-1.79,3.78-2.46,4.39-2.79c3.22-2.03,5.84-4.09,7.78-6.12c0.88-0.92,2.63-3.39,4.4-9.45
		l44.31-156.54c0.74-2.42,1.12-4.73,1.12-6.86c0-2.02-0.36-3.08-0.57-3.53c-0.71-1.53-1.71-3.37-2.96-5.47
		c-3.04-4.43-4.46-8.15-4.46-11.68c0-1.42,0.29-3.16,0.96-5.83l0.05-0.19l0.06-0.18c1.63-5.3,5.33-9.26,10.68-11.45
		c4.22-1.72,10.08-2.56,17.9-2.56h129.93c17.35,0,32.77,2.69,45.83,8c13.44,5.45,23.91,13.12,31.13,22.78
		c7.38,9.88,11.11,21.34,11.11,34.07c0,6.99-0.96,13.58-2.86,19.59c-6.26,21.68-21.72,37.12-46.07,46.08
		c4.35,2.92,8.2,6.33,11.54,10.2c7.95,9.22,11.99,20.7,11.99,34.11c0,6.03-1.03,12.83-3.16,20.8l-0.03,0.1
		c-5.85,20.76-17.85,36.38-35.66,46.42c-17.15,9.67-41.41,14.58-72.1,14.58H1036.61z M1152.75,335.55c8.68,0,15.31-1.99,20.26-6.08
		c5.08-4.2,9.39-12.41,12.82-24.41c1.5-5.14,2.25-9.81,2.25-13.91c0-6.12-1.16-12.1-15.01-12.1h-12.51l-16.34,56.5H1152.75z
		 M1181.06,227.03c8.3,0,14.8-1.91,19.32-5.69c4.65-3.9,8.78-11.84,11.94-22.98l0.07-0.23c1.45-4.56,2.19-8.8,2.19-12.6
		c0-5.76-1.07-11.38-13.91-11.38H1190l-14.98,52.88H1181.06z"/>
	<path class="st0" d="M1235.86,133.99c16.46,0,30.79,2.48,43.01,7.45c12.22,4.96,21.53,11.73,27.95,20.32
		c6.41,8.59,9.62,18.45,9.62,29.58c0,6.29-0.85,12.1-2.54,17.42c-7.02,24.44-27.23,39.93-60.62,46.46
		c11.61,3.39,20.8,9.02,27.58,16.88c6.78,7.86,10.17,17.6,10.17,29.21c0,5.32-0.97,11.61-2.91,18.87
		c-5.32,18.88-16.03,32.85-32.12,41.92c-16.09,9.07-38.9,13.61-68.42,13.61h-150.98c-5.08,0-9.02-0.85-11.8-2.54
		c-2.78-1.69-4.17-3.99-4.17-6.89c0-1.45,0.36-3.02,1.09-4.72c0.97-2.66,2.54-4.72,4.72-6.17c2.18-1.45,3.51-2.3,4-2.54
		c3.87-2.42,7.01-4.9,9.43-7.44c2.42-2.54,4.48-6.72,6.17-12.52l44.28-156.44c0.97-3.14,1.45-6.17,1.45-9.07
		c0-2.66-0.43-4.9-1.28-6.72c-0.84-1.81-1.99-3.93-3.44-6.35c-2.18-3.14-3.27-5.68-3.27-7.63c0-0.72,0.24-2.06,0.73-4
		c0.97-3.14,3.09-5.38,6.35-6.72c3.27-1.33,8.29-2,15.06-2H1235.86 M1165.09,234.53h15.97c10.16,0,18.2-2.48,24.13-7.44
		c5.93-4.96,10.71-13.86,14.34-26.68c1.69-5.32,2.54-10.28,2.54-14.87c0-12.59-7.14-18.88-21.41-18.88h-16.34L1165.09,234.53
		 M1134.24,343.05h18.5c10.4,0,18.75-2.6,25.04-7.8c6.3-5.2,11.38-14.58,15.25-28.13c1.69-5.81,2.54-11.13,2.54-15.97
		c0-13.07-7.5-19.6-22.51-19.6h-18.15L1134.24,343.05 M1235.86,118.99h-129.93c-8.93,0-15.52,0.99-20.72,3.11
		c-7.41,3.03-12.75,8.78-15.03,16.19l-0.11,0.37l-0.09,0.38c-0.84,3.35-1.19,5.57-1.19,7.66c0,4.98,1.84,10.13,5.63,15.71
		c0.98,1.65,1.76,3.08,2.33,4.26c0.02,0.14,0.03,0.38,0.03,0.72c0,1.39-0.27,2.95-0.79,4.66l-0.05,0.16l-0.05,0.16l-44.26,156.38
		c-1.37,4.68-2.54,6.22-2.65,6.36c-1.48,1.54-3.55,3.16-6.14,4.81c-0.91,0.52-2.2,1.33-4.71,2.99c-4.71,3.14-8.28,7.67-10.35,13.13
		c-1.42,3.44-2.14,6.88-2.14,10.24c0,8.12,4.14,15.3,11.37,19.7c5.23,3.18,11.64,4.73,19.6,4.73h150.98
		c32.45,0,57.25-5.08,75.79-15.54c19.59-11.04,32.78-28.18,39.19-50.92l0.03-0.1l0.03-0.1c2.3-8.61,3.42-16.05,3.42-22.74
		c0-15.26-4.65-28.39-13.81-39.01c-0.98-1.14-2-2.24-3.05-3.3c4.89-2.49,9.38-5.29,13.43-8.4c12.6-9.66,21.23-22.28,25.65-37.51
		c2.11-6.71,3.18-14.03,3.18-21.76c0-14.38-4.24-27.35-12.6-38.55c-8.05-10.78-19.6-19.27-34.33-25.25
		C1270.55,121.87,1254.18,118.99,1235.86,118.99L1235.86,118.99z M1195.67,181.66h5c3.97,0,5.62,0.7,6.04,0.92
		c0.14,0.36,0.37,1.31,0.37,2.96c0,3.03-0.62,6.5-1.83,10.32l-0.07,0.23l-0.07,0.23c-3.65,12.87-7.54,17.6-9.54,19.27
		c-2.46,2.06-6.01,3.31-10.58,3.76L1195.67,181.66L1195.67,181.66z M1166.2,286.55h6.87c4.53,0,6.59,0.86,7.01,1.19
		c0.08,0.15,0.5,1.06,0.5,3.41c0,3.4-0.65,7.36-1.94,11.77l-0.01,0.04l-0.01,0.04c-3.94,13.79-8.19,18.88-10.38,20.68
		c-3.3,2.73-7.9,4.15-14.03,4.35L1166.2,286.55L1166.2,286.55z"/>
</g>
</svg>
